<svg width="17" height="16" viewBox="0 0 17 16" fill="none" xmlns="http://www.w3.org/2000/svg">
<path d="M5.00662 14.6666H11.9933C13.8333 14.6666 14.5666 13.5399 14.6533 12.1666L14.9999 6.65992C15.0933 5.21992 13.9466 3.99992 12.4999 3.99992C12.0933 3.99992 11.7199 3.76659 11.5333 3.40659L11.0533 2.43992C10.7466 1.83325 9.94662 1.33325 9.26662 1.33325H7.73995C7.05328 1.33325 6.25328 1.83325 5.94662 2.43992L5.46662 3.40659C5.27995 3.76659 4.90662 3.99992 4.49995 3.99992C3.05328 3.99992 1.90662 5.21992 1.99995 6.65992L2.34662 12.1666C2.42662 13.5399 3.16662 14.6666 5.00662 14.6666Z" stroke="#EFF3FA" stroke-width="1.5" stroke-linecap="round" stroke-linejoin="round"/>
<path d="M7.5 5.33325H9.5" stroke="#EFF3FA" stroke-width="1.5" stroke-linecap="round" stroke-linejoin="round"/>
<path d="M8.49992 12.0001C9.69325 12.0001 10.6666 11.0267 10.6666 9.83341C10.6666 8.64008 9.69325 7.66675 8.49992 7.66675C7.30659 7.66675 6.33325 8.64008 6.33325 9.83341C6.33325 11.0267 7.30659 12.0001 8.49992 12.0001Z" stroke="#EFF3FA" stroke-width="1.5" stroke-linecap="round" stroke-linejoin="round"/>
</svg>
