<svg width="25" height="24" viewBox="0 0 25 24" fill="none" xmlns="http://www.w3.org/2000/svg">
<path d="M16.25 8.75C15.84 8.75 15.5 8.41 15.5 8V4.5C15.5 3.42 14.83 2.75 13.75 2.75H10.75C9.67 2.75 9 3.42 9 4.5V8C9 8.41 8.66 8.75 8.25 8.75C7.84 8.75 7.5 8.41 7.5 8V4.5C7.5 2.59 8.84 1.25 10.75 1.25H13.75C15.66 1.25 17 2.59 17 4.5V8C17 8.41 16.66 8.75 16.25 8.75Z" fill="#192252"/>
<path d="M8.24997 17.78C7.83997 17.78 7.49997 17.44 7.49997 17.03C7.49997 16.61 7.83997 16.28 8.24997 16.28H20.01C20.31 16.28 20.54 16.02 20.51 15.72L19.83 10.03C19.59 8.09 19.25 6.5 15.85 6.5H8.64997C5.24997 6.5 4.90997 8.09 4.67997 10.03L3.77997 17.53C3.48997 19.99 4.24997 22 7.75997 22H16.74C19.9 22 20.83 20.37 20.78 18.25C20.77 17.98 20.55 17.78 20.28 17.78H8.24997Z" fill="#192252"/>
</svg>
