<svg width="25" height="24" viewBox="0 0 25 24" fill="none" xmlns="http://www.w3.org/2000/svg">
<path d="M18.55 2.1L8.61997 4.59C7.16997 4.95 5.69997 6.42 5.33997 7.87L2.84997 17.8C2.09997 20.8 3.93997 22.65 6.94997 21.9L16.88 19.42C18.32 19.06 19.8 17.58 20.16 16.14L22.65 6.2C23.4 3.2 21.55 1.35 18.55 2.1Z" stroke="#424F7B" stroke-width="1.5" stroke-linecap="round" stroke-linejoin="round"/>
<path d="M12.75 15.5C14.683 15.5 16.25 13.933 16.25 12C16.25 10.067 14.683 8.5 12.75 8.5C10.817 8.5 9.25 10.067 9.25 12C9.25 13.933 10.817 15.5 12.75 15.5Z" stroke="#424F7B" stroke-width="1.5" stroke-linecap="round" stroke-linejoin="round"/>
</svg>
