<svg width="25" height="24" viewBox="0 0 25 24" fill="none" xmlns="http://www.w3.org/2000/svg">
<path d="M21.73 3.0201C20.86 2.1501 19.63 1.8101 18.44 2.1101L8.63998 4.5601C6.98998 4.9701 5.71998 6.2501 5.30998 7.8901L2.85998 17.7001C2.55998 18.8901 2.89998 20.1201 3.76998 20.9901C4.42998 21.6401 5.29998 22.0001 6.19998 22.0001C6.47998 22.0001 6.76998 21.9701 7.04998 21.8901L16.86 19.4401C18.5 19.0301 19.78 17.7601 20.19 16.1101L22.64 6.3001C22.94 5.1101 22.6 3.8801 21.73 3.0201ZM12.75 15.8801C10.61 15.8801 8.86998 14.1401 8.86998 12.0001C8.86998 9.8601 10.61 8.1201 12.75 8.1201C14.89 8.1201 16.63 9.8601 16.63 12.0001C16.63 14.1401 14.89 15.8801 12.75 15.8801Z" fill="#192252"/>
</svg>
