<svg width="16" height="16" viewBox="0 0 16 16" fill="none" xmlns="http://www.w3.org/2000/svg">
<path d="M6.31328 10.1867C6.18661 10.1867 6.05995 10.14 5.95995 10.04C5.41328 9.49334 5.11328 8.76668 5.11328 8.00001C5.11328 6.40668 6.40661 5.11334 7.99995 5.11334C8.76661 5.11334 9.49328 5.41334 10.0399 5.96001C10.1333 6.05334 10.1866 6.18001 10.1866 6.31334C10.1866 6.44668 10.1333 6.57334 10.0399 6.66668L6.66661 10.04C6.56661 10.14 6.43995 10.1867 6.31328 10.1867ZM7.99995 6.11334C6.95995 6.11334 6.11328 6.96001 6.11328 8.00001C6.11328 8.33334 6.19995 8.65334 6.35995 8.93334L8.93328 6.36001C8.65328 6.20001 8.33328 6.11334 7.99995 6.11334Z" fill="#2A3563"/>
<path d="M3.73323 12.34C3.6199 12.34 3.4999 12.3 3.40656 12.22C2.69323 11.6134 2.05323 10.8667 1.50656 10C0.799896 8.90003 0.799896 7.10669 1.50656 6.00003C3.13323 3.45336 5.4999 1.98669 7.9999 1.98669C9.46656 1.98669 10.9132 2.49336 12.1799 3.44669C12.3999 3.61336 12.4466 3.92669 12.2799 4.14669C12.1132 4.36669 11.7999 4.41336 11.5799 4.24669C10.4866 3.42003 9.24656 2.98669 7.9999 2.98669C5.84656 2.98669 3.78656 4.28003 2.34656 6.54003C1.84656 7.32003 1.84656 8.68003 2.34656 9.46003C2.84656 10.24 3.4199 10.9134 4.05323 11.46C4.2599 11.64 4.28656 11.9534 4.10656 12.1667C4.01323 12.28 3.87323 12.34 3.73323 12.34Z" fill="#2A3563"/>
<path d="M8.0002 14.0134C7.11354 14.0134 6.24687 13.8334 5.41354 13.48C5.1602 13.3734 5.0402 13.08 5.14687 12.8267C5.25354 12.5734 5.54687 12.4534 5.8002 12.56C6.50687 12.86 7.24687 13.0134 7.99354 13.0134C10.1469 13.0134 12.2069 11.72 13.6469 9.46002C14.1469 8.68002 14.1469 7.32002 13.6469 6.54002C13.4402 6.21335 13.2135 5.90002 12.9735 5.60669C12.8002 5.39335 12.8335 5.08002 13.0469 4.90002C13.2602 4.72669 13.5735 4.75335 13.7535 4.97335C14.0135 5.29335 14.2669 5.64002 14.4935 6.00002C15.2002 7.10002 15.2002 8.89335 14.4935 10C12.8669 12.5467 10.5002 14.0134 8.0002 14.0134Z" fill="#292D32"/>
<path d="M8.46022 10.8467C8.22688 10.8467 8.01355 10.68 7.96688 10.44C7.91355 10.1667 8.09355 9.90665 8.36688 9.85999C9.10022 9.72665 9.71355 9.11332 9.84688 8.37999C9.90022 8.10665 10.1602 7.93332 10.4335 7.97999C10.7069 8.03332 10.8869 8.29332 10.8335 8.56665C10.6202 9.71999 9.70022 10.6333 8.55355 10.8467C8.52022 10.84 8.49355 10.8467 8.46022 10.8467Z" fill="#292D32"/>
<path d="M1.33329 15.1667C1.20663 15.1667 1.07996 15.12 0.979961 15.02C0.786628 14.8267 0.786628 14.5067 0.979961 14.3134L5.95996 9.33335C6.15329 9.14002 6.47329 9.14002 6.66663 9.33335C6.85996 9.52669 6.85996 9.84669 6.66663 10.04L1.68663 15.02C1.58663 15.12 1.45996 15.1667 1.33329 15.1667Z" fill="#292D32"/>
<path d="M9.68681 6.81336C9.56014 6.81336 9.43348 6.76669 9.33348 6.66669C9.14014 6.47336 9.14014 6.15336 9.33348 5.96002L14.3135 0.980022C14.5068 0.786689 14.8268 0.786689 15.0201 0.980022C15.2135 1.17336 15.2135 1.49336 15.0201 1.68669L10.0401 6.66669C9.94014 6.76669 9.81348 6.81336 9.68681 6.81336Z" fill="#292D32"/>
</svg>
