<svg width="20" height="20" viewBox="0 0 20 20" fill="none" xmlns="http://www.w3.org/2000/svg">
<path d="M8.75 17.4167C5.20833 16.7917 2.5 13.7083 2.5 10C2.5 5.875 5.875 2.5 10 2.5C14.125 2.5 17.5 5.875 17.5 10C17.5 13.7083 14.7917 16.7917 11.25 17.4167L10.8333 17.0833H9.16667L8.75 17.4167Z" fill="url(#paint0_linear_135_1723)"/>
<path d="M12.9167 12.0834L13.25 10H11.25V8.54169C11.25 7.95835 11.4583 7.50002 12.375 7.50002H13.3333V5.58335C12.7917 5.50002 12.2083 5.41669 11.6667 5.41669C9.95833 5.41669 8.75 6.45835 8.75 8.33335V10H6.875V12.0834H8.75V17.375C9.16667 17.4584 9.58333 17.5 10 17.5C10.4167 17.5 10.8333 17.4584 11.25 17.375V12.0834H12.9167Z" fill="white"/>
<defs>
<linearGradient id="paint0_linear_135_1723" x1="10" y1="16.9808" x2="10" y2="2.5" gradientUnits="userSpaceOnUse">
<stop stop-color="#0062E0"/>
<stop offset="1" stop-color="#19AFFF"/>
</linearGradient>
</defs>
</svg>
