<svg width="16" height="16" viewBox="0 0 16 16" fill="none" xmlns="http://www.w3.org/2000/svg">
<path d="M3.60006 1.3999H12.4001C13.1334 1.3999 13.7334 1.9999 13.7334 2.73324V4.1999C13.7334 4.73324 13.4001 5.3999 13.0667 5.73324L10.2001 8.26657C9.80006 8.5999 9.53339 9.26657 9.53339 9.7999V12.6666C9.53339 13.0666 9.26672 13.5999 8.93339 13.7999L8.00006 14.3999C7.13339 14.9332 5.93339 14.3332 5.93339 13.2666V9.73324C5.93339 9.26657 5.66672 8.66657 5.40006 8.33324L2.86672 5.66657C2.53339 5.33324 2.26672 4.73324 2.26672 4.33324V2.7999C2.26672 1.9999 2.86672 1.3999 3.60006 1.3999Z" stroke="#EFF3FA" stroke-width="1.5" stroke-miterlimit="10" stroke-linecap="round" stroke-linejoin="round"/>
<path d="M7.28667 1.3999L4 6.66657" stroke="#EFF3FA" stroke-width="1.5" stroke-miterlimit="10" stroke-linecap="round" stroke-linejoin="round"/>
</svg>
