<svg width="14" height="14" viewBox="0 0 14 14" fill="none" xmlns="http://www.w3.org/2000/svg">
<path d="M11.5359 5.61919V5.61918H11.5327H9.17608C8.74958 5.61918 8.57898 5.53962 8.50922 5.47788C8.45519 5.43006 8.37524 5.31503 8.37524 4.96418V2.32168C8.37524 1.97478 8.4547 1.85861 8.50995 1.80952C8.58027 1.74704 8.75136 1.66668 9.17608 1.66668H11.5327C11.9575 1.66668 12.1285 1.74704 12.1989 1.80952C12.2541 1.85861 12.3336 1.97478 12.3336 2.32168V4.97001C12.3336 5.31728 12.254 5.43269 12.1996 5.4808C12.1304 5.54207 11.9603 5.62186 11.5359 5.61919Z" fill="#848FAC" stroke="#848FAC"/>
<path d="M12.3336 9.17585V11.5325C12.3336 11.9462 12.2474 12.1072 12.1774 12.1772C12.1075 12.2471 11.9464 12.3333 11.5327 12.3333H9.17608C8.76241 12.3333 8.60135 12.2471 8.5314 12.1772C8.46145 12.1072 8.37524 11.9462 8.37524 11.5325V9.17585C8.37524 8.76218 8.46145 8.60112 8.5314 8.53117C8.60135 8.46122 8.76241 8.37502 9.17608 8.37502H11.5327C11.9464 8.37502 12.1075 8.46122 12.1774 8.53117C12.2474 8.60112 12.3336 8.76218 12.3336 9.17585Z" fill="#848FAC" stroke="#848FAC"/>
<path d="M4.82764 5.61919V5.61918H4.82449H2.46783C2.04133 5.61918 1.87073 5.53962 1.80097 5.47788C1.74693 5.43006 1.66699 5.31503 1.66699 4.96418V2.32168C1.66699 1.97478 1.74645 1.85861 1.8017 1.80952C1.87202 1.74704 2.04311 1.66668 2.46783 1.66668H4.82449C5.24921 1.66668 5.4203 1.74704 5.49062 1.80952C5.54587 1.85861 5.62533 1.97478 5.62533 2.32168V4.97001C5.62533 5.31728 5.5457 5.43269 5.49135 5.4808C5.42211 5.54207 5.25208 5.62186 4.82764 5.61919Z" fill="#848FAC" stroke="#848FAC"/>
<path d="M6.12533 11.5325V9.17585C6.12533 8.24835 5.75199 7.87502 4.82449 7.87502H2.46783C1.54033 7.87502 1.16699 8.24835 1.16699 9.17585V11.5325C1.16699 12.46 1.54033 12.8333 2.46783 12.8333H4.82449C5.75199 12.8333 6.12533 12.46 6.12533 11.5325Z" fill="#848FAC"/>
</svg>
