<svg width="16" height="16" viewBox="0 0 16 16" fill="none" xmlns="http://www.w3.org/2000/svg">
<path fill-rule="evenodd" clip-rule="evenodd" d="M14.8 8.16102C14.8 7.65875 14.7549 7.1758 14.6712 6.71216H8V9.45212H11.8121C11.6479 10.3375 11.1489 11.0877 10.3987 11.59V13.3673H12.6879C14.0273 12.1341 14.8 10.3182 14.8 8.16102Z" fill="#4285F4"/>
<path fill-rule="evenodd" clip-rule="evenodd" d="M8.0001 15.0834C9.9126 15.0834 11.516 14.4491 12.688 13.3673L10.3988 11.59C9.7645 12.015 8.95313 12.2662 8.0001 12.2662C6.15521 12.2662 4.59366 11.0201 4.03665 9.34589H1.67017V11.1811C2.8357 13.4961 5.23116 15.0834 8.0001 15.0834Z" fill="#34A853"/>
<path fill-rule="evenodd" clip-rule="evenodd" d="M4.03664 9.34587C3.89497 8.92087 3.81448 8.46689 3.81448 8.00004C3.81448 7.53318 3.89497 7.0792 4.03664 6.6542V4.81897H1.67016C1.19042 5.77522 0.916748 6.85704 0.916748 8.00004C0.916748 9.14303 1.19042 10.2248 1.67016 11.1811L4.03664 9.34587Z" fill="#FBBC05"/>
<path fill-rule="evenodd" clip-rule="evenodd" d="M8.0001 3.73393C9.04006 3.73393 9.97378 4.09131 10.7079 4.79321L12.7395 2.76158C11.5128 1.61858 9.90938 0.916687 8.0001 0.916687C5.23116 0.916687 2.8357 2.504 1.67017 4.81897L4.03665 6.6542C4.59366 4.97995 6.15521 3.73393 8.0001 3.73393Z" fill="#EA4335"/>
</svg>
