<svg width="16" height="16" viewBox="0 0 16 16" fill="none" xmlns="http://www.w3.org/2000/svg">
<path d="M8.00004 14.6668C11.6819 14.6668 14.6667 11.6821 14.6667 8.00016C14.6667 4.31826 11.6819 1.3335 8.00004 1.3335C4.31814 1.3335 1.33337 4.31826 1.33337 8.00016C1.33337 11.6821 4.31814 14.6668 8.00004 14.6668Z" stroke="#192252" stroke-width="1.5" stroke-linecap="round" stroke-linejoin="round"/>
<path d="M5.33336 2H6.00002C4.70002 5.89333 4.70002 10.1067 6.00002 14H5.33336" stroke="#192252" stroke-width="1.5" stroke-linecap="round" stroke-linejoin="round"/>
<path d="M10 2C11.3 5.89333 11.3 10.1067 10 14" stroke="#192252" stroke-width="1.5" stroke-linecap="round" stroke-linejoin="round"/>
<path d="M2 10.6667V10C5.89333 11.3 10.1067 11.3 14 10V10.6667" stroke="#192252" stroke-width="1.5" stroke-linecap="round" stroke-linejoin="round"/>
<path d="M2 5.9999C5.89333 4.6999 10.1067 4.6999 14 5.9999" stroke="#192252" stroke-width="1.5" stroke-linecap="round" stroke-linejoin="round"/>
</svg>
