<svg width="200" height="200" viewBox="0 0 200 200" fill="none" xmlns="http://www.w3.org/2000/svg">
<g opacity="0.02">
<path d="M78.3159 55.4495L76.8982 53.1186C76.3135 52.2808 76 51.2843 76 50.2632C76 49.2421 76.3135 48.2456 76.8982 47.4078L85.6046 33.3223L95.6118 17.2222C95.7877 16.9341 96.0191 16.6836 96.2927 16.4855C96.5662 16.2874 96.8765 16.1455 97.2055 16.068C97.5344 15.9906 97.8755 15.9791 98.2089 16.0344C98.5424 16.0896 98.8615 16.2104 99.1478 16.3897C99.5327 16.619 99.8493 16.9466 100.065 17.3388L199.699 178.22C200.018 178.819 200.087 179.519 199.89 180.168C199.693 180.817 199.246 181.362 198.648 181.683C198.278 181.897 197.857 182.006 197.43 182H158.602C158.142 182 157.69 181.876 157.294 181.642C156.898 181.407 156.572 181.071 156.351 180.668L154.866 178.204C154.799 178.113 154.738 178.019 154.683 177.921L153.015 175.257C139.188 152.364 92.4095 78.5924 78.5494 55.8158C78.4637 55.6989 78.3857 55.5766 78.3159 55.4495Z" fill="#4078E0"/>
<path d="M0 184H49.0909L68.6398 151.776C70.1829 149.233 73.8638 149.204 75.4466 151.723L94.5511 182.128C95.283 183.293 96.5623 184 97.938 184H136.935C140.044 184 141.965 180.608 140.365 177.942L75.43 69.7166C73.8764 67.1273 70.1236 67.1273 68.57 69.7166L0 184Z" fill="#4A74EA"/>
</g>
</svg>
