<svg width="16" height="16" viewBox="0 0 16 16" fill="none" xmlns="http://www.w3.org/2000/svg">
<path d="M7.34663 13H4.99996C4.58663 13 4.21996 12.9867 3.89329 12.94C2.13996 12.7467 1.66663 11.92 1.66663 9.66667V6.33333C1.66663 4.08 2.13996 3.25333 3.89329 3.06C4.21996 3.01333 4.58663 3 4.99996 3H7.30663" stroke="#192252" stroke-width="1.5" stroke-linecap="round" stroke-linejoin="round"/>
<path d="M10.0133 3H11C11.4133 3 11.78 3.01333 12.1066 3.06C13.86 3.25333 14.3333 4.08 14.3333 6.33333V9.66667C14.3333 11.92 13.86 12.7467 12.1066 12.94C11.78 12.9867 11.4133 13 11 13H10.0133" stroke="#192252" stroke-width="1.5" stroke-linecap="round" stroke-linejoin="round"/>
<path d="M10 1.3335V14.6668" stroke="#192252" stroke-width="1.5" stroke-linecap="round" stroke-linejoin="round"/>
<path d="M7.39632 7.99984H7.40231" stroke="#192252" stroke-width="2" stroke-linecap="round" stroke-linejoin="round"/>
<path d="M4.7297 7.99984H4.73568" stroke="#292D32" stroke-width="2" stroke-linecap="round" stroke-linejoin="round"/>
</svg>
