<svg width="16" height="16" viewBox="0 0 16 16" fill="none" xmlns="http://www.w3.org/2000/svg">
<path d="M8.10671 7.24683C8.04004 7.24016 7.96004 7.24016 7.88671 7.24683C6.30004 7.1935 5.04004 5.8935 5.04004 4.2935C5.04004 2.66016 6.36004 1.3335 8.00004 1.3335C9.63337 1.3335 10.96 2.66016 10.96 4.2935C10.9534 5.8935 9.69337 7.1935 8.10671 7.24683Z" stroke="#192252" stroke-width="1.5" stroke-linecap="round" stroke-linejoin="round"/>
<path d="M4.77335 9.7065C3.16002 10.7865 3.16002 12.5465 4.77335 13.6198C6.60669 14.8465 9.61335 14.8465 11.4467 13.6198C13.06 12.5398 13.06 10.7798 11.4467 9.7065C9.62002 8.4865 6.61335 8.4865 4.77335 9.7065Z" stroke="#192252" stroke-width="1.5" stroke-linecap="round" stroke-linejoin="round"/>
</svg>
