<svg width="14" height="14" viewBox="0 0 14 14" fill="none" xmlns="http://www.w3.org/2000/svg">
<g opacity="0.6">
<path d="M2.39175 8.375H11.6084C11.9893 8.375 12.1266 8.45827 12.1849 8.52021C12.2504 8.58982 12.3334 8.75563 12.3334 9.17583V11.5325C12.3334 11.9527 12.2504 12.1185 12.1849 12.1881C12.1266 12.2501 11.9893 12.3333 11.6084 12.3333H2.39175C2.01082 12.3333 1.87357 12.2501 1.8153 12.1881C1.74981 12.1185 1.66675 11.9527 1.66675 11.5325V9.17583C1.66675 8.75563 1.74981 8.58982 1.8153 8.52021C1.87357 8.45827 2.01082 8.375 2.39175 8.375Z" fill="#848FAC" stroke="#848FAC"/>
<path d="M2.39175 1.66667H11.6084C11.9893 1.66667 12.1266 1.74993 12.1849 1.81187C12.2504 1.88148 12.3334 2.04729 12.3334 2.4675V4.82417C12.3334 5.24437 12.2504 5.41018 12.1849 5.47979C12.1266 5.54173 11.9893 5.625 11.6084 5.625H2.39175C2.01082 5.625 1.87357 5.54173 1.8153 5.47979C1.74981 5.41018 1.66675 5.24437 1.66675 4.82417V2.4675C1.66675 2.04729 1.74981 1.88148 1.8153 1.81187C1.87357 1.74993 2.01082 1.66667 2.39175 1.66667Z" fill="#848FAC" stroke="#848FAC"/>
</g>
</svg>
