<?xml version="1.0" standalone="no"?>
<!DOCTYPE svg PUBLIC "-//W3C//DTD SVG 20010904//EN"
 "http://www.w3.org/TR/2001/REC-SVG-20010904/DTD/svg10.dtd">
<svg version="1.0" xmlns="http://www.w3.org/2000/svg"
 width="319.000000pt" height="335.000000pt" viewBox="0 0 319.000000 335.000000"
 preserveAspectRatio="xMidYMid meet">

<g transform="translate(0.000000,335.000000) scale(0.100000,-0.100000)"
fill="#000000" stroke="none">
<path d="M1299 3000 c-13 -9 -76 -34 -139 -55 -362 -119 -458 -201 -525 -450
-15 -55 -38 -128 -51 -163 -13 -36 -24 -66 -24 -68 0 -22 381 -159 395 -142 1
2 7 11 12 22 8 14 14 -5 28 -90 28 -163 33 -806 10 -1202 -10 -168 -14 -297
-9 -302 14 -12 212 -39 414 -55 145 -12 216 -13 330 -5 167 12 297 26 390 43
l65 12 -3 85 c-2 47 -10 162 -17 255 -25 303 -35 537 -30 690 3 83 7 195 10
250 5 157 40 438 44 358 1 -12 5 -24 9 -27 18 -11 295 66 364 100 l27 14 -15
48 c-8 26 -30 103 -50 172 -44 155 -72 208 -148 276 -51 47 -79 62 -210 113
-83 32 -182 69 -221 81 -38 13 -80 31 -93 41 -18 14 -29 16 -55 7 -164 -52
-279 -52 -453 0 -23 7 -36 6 -55 -8z"/>
</g>
</svg>
