<svg width="37" height="36" viewBox="0 0 37 36" fill="none" xmlns="http://www.w3.org/2000/svg">
<path d="M9.5 19.5C5.36 19.5 2 22.845 2 27C2 31.155 5.36 34.5 9.5 34.5C13.64 34.5 17 31.14 17 27C17 22.86 13.655 19.5 9.5 19.5ZM6.44 23.94H9.5C10.07 23.94 10.52 24.405 10.52 24.96C10.52 25.515 10.07 25.98 9.5 25.98H6.44C5.87 25.98 5.42 25.515 5.42 24.96C5.42 24.405 5.87 23.94 6.44 23.94ZM12.56 30.06H6.44C5.87 30.06 5.42 29.595 5.42 29.04C5.42 28.485 5.885 28.02 6.44 28.02H12.575C13.145 28.02 13.595 28.485 13.595 29.04C13.595 29.595 13.13 30.06 12.56 30.06Z" fill="#006DB4"/>
<path d="M26 4.5H11C6.5 4.5 3.5 6.75 3.5 12V16.71C3.5 17.805 4.625 18.495 5.63 18.06C7.28 17.34 9.155 17.07 11.12 17.385C15.05 18.03 18.26 21.135 19.055 25.035C19.28 26.175 19.31 27.285 19.16 28.35C19.04 29.235 19.76 30.015 20.645 30.015H26C30.5 30.015 33.5 27.765 33.5 22.515V12C33.5 6.75 30.5 4.5 26 4.5ZM26.705 12.885L22.01 16.635C21.02 17.43 19.76 17.82 18.5 17.82C17.24 17.82 15.965 17.43 14.99 16.635L10.295 12.885C9.815 12.495 9.74 11.775 10.115 11.295C10.505 10.815 11.21 10.725 11.69 11.115L16.385 14.865C17.525 15.78 19.46 15.78 20.6 14.865L25.295 11.115C25.775 10.725 26.495 10.8 26.87 11.295C27.26 11.775 27.185 12.495 26.705 12.885Z" fill="#006DB4"/>
</svg>
