<svg width="17" height="18" viewBox="0 0 17 18" fill="none" xmlns="http://www.w3.org/2000/svg">
<path d="M8.50008 0.666504C3.90008 0.666504 0.166748 4.39984 0.166748 8.99984C0.166748 13.5998 3.90008 17.3332 8.50008 17.3332C13.1001 17.3332 16.8334 13.5998 16.8334 8.99984C16.8334 4.39984 13.1001 0.666504 8.50008 0.666504ZM11.4417 9.02484C11.3167 9.14984 11.1584 9.20817 11.0001 9.20817C10.8417 9.20817 10.6834 9.14984 10.5584 9.02484L9.12508 7.5915V11.9165C9.12508 12.2582 8.84175 12.5415 8.50008 12.5415C8.15842 12.5415 7.87508 12.2582 7.87508 11.9165V7.5915L6.44175 9.02484C6.20008 9.2665 5.80008 9.2665 5.55842 9.02484C5.31675 8.78317 5.31675 8.38317 5.55842 8.1415L8.05842 5.6415C8.30008 5.39984 8.70008 5.39984 8.94175 5.6415L11.4417 8.1415C11.6834 8.38317 11.6834 8.78317 11.4417 9.02484Z" fill="white"/>
</svg>
